<?xml version="1.0" standalone="no"?>
<!DOCTYPE svg PUBLIC "-//W3C//DTD SVG 20010904//EN"
 "http://www.w3.org/TR/2001/REC-SVG-20010904/DTD/svg10.dtd">
<svg version="1.0" xmlns="http://www.w3.org/2000/svg"
 width="948.000000pt" height="1280.000000pt" viewBox="0 0 948.000000 1280.000000"
 preserveAspectRatio="xMidYMid meet">
<g transform="translate(0.000000,1280.000000) scale(0.100000,-0.100000)"
fill="#000000" stroke="none">
<path d="M3117 12789 l-29 -11 6 -187 c3 -102 8 -370 11 -596 18 -1372 53
-2506 85 -2735 12 -84 30 -100 112 -100 165 0 439 130 589 279 90 90 206 226
223 261 10 19 11 136 5 520 -4 272 -13 842 -19 1265 -11 769 -11 770 -34 821
-95 208 -553 468 -866 490 -30 2 -68 -1 -83 -7z"/>
<path d="M2645 12773 c-338 -28 -716 -111 -1027 -223 -169 -62 -456 -207 -602
-304 -589 -394 -911 -935 -991 -1668 -27 -248 -28 -287 -17 -518 7 -124 17
-333 23 -465 85 -1943 473 -3722 1065 -4885 104 -206 215 -388 438 -720 730
-1086 1297 -1802 1911 -2415 690 -688 1321 -1126 1981 -1375 407 -153 892
-224 1244 -182 290 35 963 246 1435 449 268 116 741 367 752 400 3 9 -2873
2278 -2901 2289 -8 3 -45 -10 -82 -29 -102 -51 -246 -102 -359 -128 -141 -31
-356 -32 -471 -1 -165 44 -295 120 -415 242 -188 190 -574 847 -1261 2145
-509 961 -1086 2098 -1122 2208 -50 153 -70 287 -70 467 0 239 42 401 150 582
90 151 288 327 466 414 32 15 59 33 61 38 2 6 -20 803 -49 1771 -29 968 -53
1795 -53 1838 l-1 77 -32 -2 c-18 -1 -51 -3 -73 -5z"/>
<path d="M6884 3803 c-71 -37 -250 -131 -397 -208 -147 -77 -266 -144 -266
-150 0 -8 2898 -2315 2968 -2363 19 -13 23 -4 86 190 80 244 196 622 203 661
12 70 -67 252 -149 341 -90 99 -1560 1242 -1829 1423 -144 97 -290 156 -415
168 l-70 7 -131 -69z"/>
</g>
</svg>
